<svg xmlns="http://www.w3.org/2000/svg" viewBox="0 0 128 128"><path d="M93 58v-2h-2v-2h-8v2h-2v2h2v2h6v4H65v-4h2V50h-2V40h-2v-2h-2v-2h-2v-2h-2v-2H43v2h-2v2h-2v2h-2v2h-2v10h-2v10h2v32h-2v4h8V74h2v22h6V74h2v22h6V74h2v22h8v-4h-2V70h26v-2h2v-2h2v-8h-2z"/><path d="M41 46h22v-6h-2v-2h-2v-2h-2v-2H43v2h-2v2h-2v2h-2v6h4zm0 4h22v-2H37v2h4zm22 42V64h-2v-2h2v-2H37v32h-2v2h4V74h2v-2h2v2h2v20h2V74h2v-2h2v2h2v20h2V74h2v-2h2v2h2v20h4v-2h-2z" fill="#a0ffff"/><path d="M35 52v6h30v-6H35z" fill="#005f5f"/><path d="M41 52v6h6v-6h-6zm4 4h-2v-2h2v2zm8-4v6h6v-6h-6zm4 4h-2v-2h2v2z" fill="#d2ffff"/><path d="M49 58h2v-6h-2v6zm12-6v6h2v-6h-2zm-24 6h2v-6h-2v6z" fill="#0ff"/><path d="M61 76h2v2h-2zm-8 0h2v2h-2zm-8 0h2v2h-2zm-8 0h2v2h-2zm24 4h2v2h-2zm-8 0h2v2h-2zm-8 0h2v2h-2zm-8 0h2v2h-2zm24 4h2v2h-2zm-8 0h2v2h-2zm-8 0h2v2h-2zm-8 0h2v2h-2zm24 4h2v2h-2zm-8 0h2v2h-2zm-8 0h2v2h-2zm-8 0h2v2h-2z" fill="#00afaf"/><path d="M37 48h2v2h-2zm24 0h2v2h-2zM37 62v14h2V60h-2v2zm24-2h2v2h-2zm2 14V64h-2v12h2v-2zm-10 0h2v2h-2zm-8 0h2v2h-2zm16 4h2v2h-2zm-8 0h2v2h-2zm-8 0h2v2h-2zm-8 0h2v2h-2zm24 4h2v2h-2zm-8 0h2v2h-2zm-8 0h2v2h-2zm-8 0h2v2h-2zm24 4h2v2h-2zm-8 0h2v2h-2zm-8 0h2v2h-2zm-8 0h2v2h-2zm16 6v2h2v-4h-2v2zm-8 0v2h2v-4h-2v2zm-8 0h-2v2h4v-4h-2v2zm26 0v-2h-2v4h4v-2h-2z" fill="#d2ffff"/><path d="M61 40v-2h-2v-2h-2v-2H43v2h-2v2h-2v2h-2v6h26v-6h-2z" fill="#e1e1e1"/><path d="M59 40v-2h-2v-2h-2v-2H45v2h-2v2h-2v2h-2v6h22v-6h-2z" fill="#fff"/><path d="M43 44h2v2h-2zm4 0h2v2h-2zm4 0h2v2h-2zm4 0h2v2h-2z" fill="#ff216e"/><path d="M43 42h2v2h-2zm4 0h2v2h-2zm4 0h2v2h-2zm4 0h2v2h-2z" fill="#ff4988"/><path d="M43 40h2v2h-2zm4 0h2v2h-2zm4 0h2v2h-2zm4 0h2v2h-2z" fill="#ff74a4"/><path d="M45 36h2v2h-2zm8 0h2v2h-2z" fill="#ffd6e4"/><path d="M41 38h2v2h-2zm6 0h2v2h-2zm4 0h2v2h-2zm6 0h2v2h-2z" fill="#ffbdd4"/><path d="M91 58v-2h-8v2h6v2h2v4h-2v2H65v2h26v-2h2v-8h-2z" fill="#ff4988"/><g fill="#ff74a4"><path d="M89 66h2v2h-2z"/><path d="M91 64h2v2h-2zm0-6h2v2h-2z"/><path d="M89 56h2v2h-2z"/></g></svg>