<svg xmlns="http://www.w3.org/2000/svg" viewBox="0 0 128 128"><path d="M82 50V40h-2v-2h-2v-2h-2v-2h-4v-2H56v2h-4v2h-2v2h-2v2h-2v10h-2v10h2v32h-2v4h8V74h4v18h-2v4h8V74h4v22h8v-4h-2V74h4v22h8v-4h-2V60h2V50h-2z"/><path d="M52 50h28v-2H48v2h4zm28 40V60H48v32h-2v2h4V74h2v-2h4v2h2v18h-2v2h4V74h2v-2h4v2h2v20h4v-2h-2V74h2v-2h4v2h2v20h4v-2h-2v-2zm1-38H46v6h36v-6h-1zm-29-6h28v-6h-2v-2h-2v-2h-4v-2H56v2h-4v2h-2v2h-2v6h4z" fill="#a0ffff"/><path d="M78 76h2v2h-2zm-10 0h2v2h-2zm-10 0h2v2h-2zm-10 0h2v2h-2zm30 4h2v2h-2zm-10 0h2v2h-2zm-10 0h2v2h-2zm-10 0h2v2h-2zm30 4h2v2h-2zm-10 0h2v2h-2zm-10 0h2v2h-2zm-10 0h2v2h-2zm30 4h2v2h-2zm-10 0h2v2h-2zm-10 0h2v2h-2zm-10 0h2v2h-2z" fill="#00afaf"/><path d="M48 48h2v2h-2zm30 0h2v2h-2zM48 62v14h2V60h-2v2zm32 12V60h-2v16h2v-2zm-12 0h2v2h-2zm-10 0h2v2h-2zm20 4h2v2h-2zm-10 0h2v2h-2zm-10 0h2v2h-2zm-10 0h2v2h-2zm30 4h2v2h-2zm-10 0h2v2h-2zm-10 0h2v2h-2zm-10 0h2v2h-2zm30 4h2v2h-2zm-10 0h2v2h-2zm-10 0h2v2h-2zm-10 0h2v2h-2zm22 4h-2v4h4v-2h-2v-2zm-12 2h-2v2h4v-4h-2v2zm-10 0h-2v2h4v-4h-2v2zm32 0v-2h-2v4h4v-2h-2z" fill="#d2ffff"/><path d="M46 52v6h36v-6H46z" fill="#005f5f"/><path d="M76 40v-2h-2v-2h-4v-2H58v2h-4v2h-2v2h-2v6h28v-6h-2z" fill="#fff"/><g fill="#e1e1e1"><path d="M48 42v4h2v-6h-2v2z"/><path d="M50 38h2v2h-2z"/><path d="M52 36h2v2h-2zm4-2h2v2h-2zm14 0h2v2h-2zm4 2h2v2h-2z"/><path d="M76 38h2v2h-2z"/><path d="M78 40v6h2v-6h-2z"/></g><path d="M56 44h2v2h-2zm4 0h2v2h-2zm6 0h2v2h-2zm4 0h2v2h-2zm-18 0h2v2h-2zm22 0h2v2h-2z" fill="#ff216e"/><path d="M56 42h2v2h-2zm4 0h2v2h-2zm6 0h2v2h-2zm4 0h2v2h-2zm-18 0h2v2h-2zm22 0h2v2h-2z" fill="#ff4988"/><path d="M56 40h2v2h-2zm-6 0h2v2h-2zm10 0h2v2h-2zm6 0h2v2h-2zm4 0h2v2h-2zm6 0h2v2h-2z" fill="#ff74a4"/><path d="M58 36h2v2h-2zm10 0h2v2h-2z" fill="#ffd9e6"/><path d="M54 38h2v2h-2zm6 0h2v2h-2zm6 0h2v2h-2zm6 0h2v2h-2z" fill="#ffbdd4"/><path d="M51 52h-2v6h6v-6h-4zm2 4h-2v-2h2v2zm10-4h-2v6h6v-6h-4zm2 4h-2v-2h2v2zm12-4h-4v6h6v-6h-2zm0 4h-2v-2h2v2z" fill="#d2ffff"/><path d="M57 54v4h2v-6h-2v2zm12 0v4h2v-6h-2v2zm12-2v6h1v-6h-1zm-35 2v4h1v-6h-1v2z" fill="#0ff"/><path d="M72 64v-2H54v6h2v2h18v-6h-2z"/><g fill="#d2ffff"><path d="M58 66h2v2h-2zm4 0h2v2h-2zm4 0h2v2h-2zm4 0h2v2h-2z"/><path d="M56 64h2v2h-2zm4 0h2v2h-2zm4 0h2v2h-2zm4 0h2v2h-2z"/></g></svg>