<svg xmlns="http://www.w3.org/2000/svg" viewBox="0 0 128 128"><path d="M114 66v-2H44v-4h2V50h-2V40h-2v-2h-2v-2h-2v-2h-2v-2H22v2h-2v2h-2v2h-2v2h-2v10h-2v10h2v32h-2v4h8V74h2v22h6V74h2v22h6V74h2v22h8v-4h-2V70h70v-2h2v-2h-2z"/><path d="M44 66v2h70v-2H44z" fill="#ff74a4"/><path d="M20 46h22v-6h-2v-2h-2v-2h-2v-2H22v2h-2v2h-2v2h-2v6h4zm0 4h22v-2H16v2h4zm22 42V64h-2v-2h2v-2H16v32h-2v2h4V74h2v-2h2v2h2v20h2V74h2v-2h2v2h2v20h2V74h2v-2h2v2h2v20h4v-2h-2z" fill="#a0ffff"/><path d="M14 52v6h30v-6H14z" fill="#005f5f"/><path d="M20 52v6h6v-6h-6zm4 4h-2v-2h2v2zm8-4v6h6v-6h-6zm4 4h-2v-2h2v2z" fill="#d2ffff"/><path d="M28 58h2v-6h-2v6zm12-6v6h2v-6h-2zm-24 6h2v-6h-2v6z" fill="#0ff"/><path d="M40 76h2v2h-2zm-8 0h2v2h-2zm-8 0h2v2h-2zm-8 0h2v2h-2zm24 4h2v2h-2zm-8 0h2v2h-2zm-8 0h2v2h-2zm-8 0h2v2h-2zm24 4h2v2h-2zm-8 0h2v2h-2zm-8 0h2v2h-2zm-8 0h2v2h-2zm24 4h2v2h-2zm-8 0h2v2h-2zm-8 0h2v2h-2zm-8 0h2v2h-2z" fill="#00afaf"/><path d="M16 48h2v2h-2zm24 0h2v2h-2zM16 62v14h2V60h-2v2zm24-2h2v2h-2zm2 14V64h-2v12h2v-2zm-10 0h2v2h-2zm-8 0h2v2h-2zm16 4h2v2h-2zm-8 0h2v2h-2zm-8 0h2v2h-2zm-8 0h2v2h-2zm24 4h2v2h-2zm-8 0h2v2h-2zm-8 0h2v2h-2zm-8 0h2v2h-2zm24 4h2v2h-2zm-8 0h2v2h-2zm-8 0h2v2h-2zm-8 0h2v2h-2zm16 6v2h2v-4h-2v2zm-8 0v2h2v-4h-2v2zm-8 0h-2v2h4v-4h-2v2zm26 0v-2h-2v4h4v-2h-2z" fill="#d2ffff"/><path d="M40 40v-2h-2v-2h-2v-2H22v2h-2v2h-2v2h-2v6h26v-6h-2z" fill="#e1e1e1"/><path d="M38 40v-2h-2v-2h-2v-2H24v2h-2v2h-2v2h-2v6h22v-6h-2z" fill="#fff"/><path d="M22 44h2v2h-2zm4 0h2v2h-2zm4 0h2v2h-2zm4 0h2v2h-2z" fill="#ff216e"/><path d="M22 42h2v2h-2zm4 0h2v2h-2zm4 0h2v2h-2zm4 0h2v2h-2z" fill="#ff4988"/><path d="M22 40h2v2h-2zm4 0h2v2h-2zm4 0h2v2h-2zm4 0h2v2h-2z" fill="#ff74a4"/><path d="M24 36h2v2h-2zm8 0h2v2h-2z" fill="#ffd6e4"/><path d="M20 38h2v2h-2zm6 0h2v2h-2zm4 0h2v2h-2zm6 0h2v2h-2z" fill="#ffbdd4"/></svg>