<svg xmlns="http://www.w3.org/2000/svg" viewBox="0 0 128 128"><path d="M37 58v8h2v2h2v2h18v22h-2v4h8V74h2v22h6V74h2v22h6V74h2v22h8v-4h-2V60h2V50h-2V40h-2v-2h-2v-2h-2v-2h-2v-2H67v2h-2v2h-2v2h-2v2h-2v10h-2v10h2v4H43v-4h6v-2h2v-2h-2v-2h-8v2h-2v2h-2z"/><path d="M87 46v-6h-2v-2h-2v-2h-2v-2H67v2h-2v2h-2v2h-2v6h22 4zm0 4v-2H61v2h22 4zM59 92v2h4V74h2v-2h2v2h2v20h2V74h2v-2h2v2h2v20h2V74h2v-2h2v2h2v20h4v-2h-2V60H61v2h2v2h-2v28h-2z" fill="#a0ffff"/><path d="M59 52v6h30v-6H59z" fill="#005f5f"/><path d="M77 52v6h6v-6h-6zm2 2h2v2h-2v-2zm-14-2v6h6v-6h-6zm2 2h2v2h-2v-2z" fill="#d2ffff"/><path d="M75 52h-2v6h2v-6zm-14 0v6h2v-6h-2zm26 0h-2v6h2v-6z" fill="#0ff"/><path d="M61 76h2v2h-2zm8 0h2v2h-2zm8 0h2v2h-2zm8 0h2v2h-2zm-24 4h2v2h-2zm8 0h2v2h-2zm8 0h2v2h-2zm8 0h2v2h-2zm-24 4h2v2h-2zm8 0h2v2h-2zm8 0h2v2h-2zm8 0h2v2h-2zm-24 4h2v2h-2zm8 0h2v2h-2zm8 0h2v2h-2zm8 0h2v2h-2z" fill="#00afaf"/><path d="M85 48h2v2h-2zm-24 0h2v2h-2zm26 12h-2v16h2V62v-2zm-26 0h2v2h-2zm0 16h2V64h-2v10 2zm8-2h2v2h-2zm8 0h2v2h-2zm-16 4h2v2h-2zm8 0h2v2h-2zm8 0h2v2h-2zm8 0h2v2h-2zm-24 4h2v2h-2zm8 0h2v2h-2zm8 0h2v2h-2zm8 0h2v2h-2zm-24 4h2v2h-2zm8 0h2v2h-2zm8 0h2v2h-2zm8 0h2v2h-2zm-14 4h-2v4h2v-2-2zm8 0h-2v4h2v-2-2zm8 0h-2v4h4v-2h-2v-2zm-28 2v2h4v-4h-2v2h-2z" fill="#d2ffff"/><path d="M61 40v6h26v-6h-2v-2h-2v-2h-2v-2H67v2h-2v2h-2v2h-2z" fill="#e1e1e1"/><path d="M63 40v6h22v-6h-2v-2h-2v-2h-2v-2H69v2h-2v2h-2v2h-2z" fill="#fff"/><path d="M79 44h2v2h-2zm-4 0h2v2h-2zm-4 0h2v2h-2zm-4 0h2v2h-2z" fill="#ff216e"/><path d="M79 42h2v2h-2zm-4 0h2v2h-2zm-4 0h2v2h-2zm-4 0h2v2h-2z" fill="#ff4988"/><path d="M79 40h2v2h-2zm-4 0h2v2h-2zm-4 0h2v2h-2zm-4 0h2v2h-2z" fill="#ff74a4"/><path d="M77 36h2v2h-2zm-8 0h2v2h-2z" fill="#ffd6e4"/><path d="M81 38h2v2h-2zm-6 0h2v2h-2zm-4 0h2v2h-2zm-6 0h2v2h-2z" fill="#ffbdd4"/><path d="M39 58v8h2v2h18v-2H43v-2h-2v-4h2v-2h6v-2h-8v2h-2z" fill="#ff4988"/><g fill="#ff74a4"><path d="M41 66h2v2h-2z"/><path d="M39 64h2v2h-2zm0-6h2v2h-2z"/><path d="M41 56h2v2h-2z"/></g></svg>