<svg xmlns="http://www.w3.org/2000/svg" viewBox="0 0 128 128"><path d="M105 58v-2h-2v-2h-8v2h-2v2h2v2h6v4H53v-4h2V50h-2V40h-2v-2h-2v-2h-2v-2h-2v-2H31v2h-2v2h-2v2h-2v2h-2v10h-2v10h2v32h-2v4h8V74h2v22h6V74h2v22h6V74h2v22h8v-4h-2V70h50v-2h2v-2h2v-8h-2z"/><path d="M29 46h22v-6h-2v-2h-2v-2h-2v-2H31v2h-2v2h-2v2h-2v6h4zm0 4h22v-2H25v2h4zm22 42V64h-2v-2h2v-2H25v32h-2v2h4V74h2v-2h2v2h2v20h2V74h2v-2h2v2h2v20h2V74h2v-2h2v2h2v20h4v-2h-2z" fill="#a0ffff"/><path d="M23 52v6h30v-6H23z" fill="#005f5f"/><path d="M29 52v6h6v-6h-6zm4 4h-2v-2h2v2zm8-4v6h6v-6h-6zm4 4h-2v-2h2v2z" fill="#d2ffff"/><path d="M37 58h2v-6h-2v6zm12-6v6h2v-6h-2zm-24 6h2v-6h-2v6z" fill="#0ff"/><path d="M49 76h2v2h-2zm-8 0h2v2h-2zm-8 0h2v2h-2zm-8 0h2v2h-2zm24 4h2v2h-2zm-8 0h2v2h-2zm-8 0h2v2h-2zm-8 0h2v2h-2zm24 4h2v2h-2zm-8 0h2v2h-2zm-8 0h2v2h-2zm-8 0h2v2h-2zm24 4h2v2h-2zm-8 0h2v2h-2zm-8 0h2v2h-2zm-8 0h2v2h-2z" fill="#00afaf"/><path d="M25 48h2v2h-2zm24 0h2v2h-2zM25 62v14h2V60h-2v2zm24-2h2v2h-2zm2 14V64h-2v12h2v-2zm-10 0h2v2h-2zm-8 0h2v2h-2zm16 4h2v2h-2zm-8 0h2v2h-2zm-8 0h2v2h-2zm-8 0h2v2h-2zm24 4h2v2h-2zm-8 0h2v2h-2zm-8 0h2v2h-2zm-8 0h2v2h-2zm24 4h2v2h-2zm-8 0h2v2h-2zm-8 0h2v2h-2zm-8 0h2v2h-2zm16 6v2h2v-4h-2v2zm-8 0v2h2v-4h-2v2zm-8 0h-2v2h4v-4h-2v2zm26 0v-2h-2v4h4v-2h-2z" fill="#d2ffff"/><path d="M49 40v-2h-2v-2h-2v-2H31v2h-2v2h-2v2h-2v6h26v-6h-2z" fill="#e1e1e1"/><path d="M47 40v-2h-2v-2h-2v-2H33v2h-2v2h-2v2h-2v6h22v-6h-2z" fill="#fff"/><path d="M31 44h2v2h-2zm4 0h2v2h-2zm4 0h2v2h-2zm4 0h2v2h-2z" fill="#ff216e"/><path d="M31 42h2v2h-2zm4 0h2v2h-2zm4 0h2v2h-2zm4 0h2v2h-2z" fill="#ff4988"/><path d="M31 40h2v2h-2zm4 0h2v2h-2zm4 0h2v2h-2zm4 0h2v2h-2z" fill="#ff74a4"/><path d="M33 36h2v2h-2zm8 0h2v2h-2z" fill="#ffd6e4"/><path d="M29 38h2v2h-2zm6 0h2v2h-2zm4 0h2v2h-2zm6 0h2v2h-2z" fill="#ffbdd4"/><path d="M103 58v-2h-8v2h6v2h2v4h-2v2H53v2h50v-2h2v-8h-2z" fill="#ff4988"/><g fill="#ff74a4"><path d="M89 66H53v2h40v-2h-4zm12 0h2v2h-2z"/><path d="M103 64h2v2h-2zm0-6h2v2h-2z"/><path d="M101 56h2v2h-2z"/></g></svg>