<svg xmlns="http://www.w3.org/2000/svg" viewBox="0 0 128 128"><path d="M49 50V40h2v-2h2v-2h2v-2h2v-2h14v2h2v2h2v2h2v2h2v10h2v10h-2v32h2v4h-8V74h-2v22h-6V74h-2v22h-6V74h-2v22h-8v-4h2V60h-2V50h2z"/><path d="M73 46H51v-6h2v-2h2v-2h2v-2h14v2h2v2h2v2h2v6h-4zm0 4H51v-2h26v2h-4zM51 92V64h2v-2h-2v-2h26v32h2v2h-4V74h-2v-2h-2v2h-2v20h-2V74h-2v-2h-2v2h-2v20h-2V74h-2v-2h-2v2h-2v20h-4v-2h2z" fill="#a0ffff"/><path d="M79 52v6H49v-6h30z" fill="#005f5f"/><path d="M67 52v6h6v-6h-6zm2 2h2v2h-2v-2zm-14-2v6h6v-6h-6zm2 2h2v2h-2v-2z" fill="#d2ffff"/><path d="M65 58h-2v-6h2v6zm-12-6v6h-2v-6h2zm24 6h-2v-6h2v6z" fill="#0ff"/><path d="M51 76h2v2h-2zm8 0h2v2h-2zm8 0h2v2h-2zm8 0h2v2h-2zm-24 4h2v2h-2zm8 0h2v2h-2zm8 0h2v2h-2zm8 0h2v2h-2zm-24 4h2v2h-2zm8 0h2v2h-2zm8 0h2v2h-2zm8 0h2v2h-2zm-24 4h2v2h-2zm8 0h2v2h-2zm8 0h2v2h-2zm8 0h2v2h-2z" fill="#00afaf"/><path d="M75 48h2v2h-2zm-24 0h2v2h-2zm26 14v14h-2V60h2v2zm-26-2h2v2h-2zm0 14V64h2v12h-2v-2zm8 0h2v2h-2zm8 0h2v2h-2zm-16 4h2v2h-2zm8 0h2v2h-2zm8 0h2v2h-2zm8 0h2v2h-2zm-24 4h2v2h-2zm8 0h2v2h-2zm8 0h2v2h-2zm8 0h2v2h-2zm-24 4h2v2h-2zm8 0h2v2h-2zm8 0h2v2h-2zm8 0h2v2h-2zm-14 6v2h-2v-4h2v2zm8 0v2h-2v-4h2v2zm8 0h2v2h-4v-4h2v2zm-26 0v-2h2v4h-4v-2h2z" fill="#d2ffff"/><path d="M53 40v-2h2v-2h2v-2h14v2h2v2h2v2h2v6H51v-6h2z" fill="#e1e1e1"/><path d="M55 40v-2h2v-2h2v-2h10v2h2v2h2v2h2v6H53v-6h2z" fill="#fff"/><path d="M69 44h2v2h-2zm-4 0h2v2h-2zm-4 0h2v2h-2zm-4 0h2v2h-2z" fill="#ff216e"/><path d="M71 44h-2v-2h2zm-4 0h-2v-2h2zm-4 0h-2v-2h2zm-4 0h-2v-2h2z" fill="#ff4988"/><path d="M71 42h-2v-2h2zm-4 0h-2v-2h2zm-4 0h-2v-2h2zm-4 0h-2v-2h2z" fill="#ff74a4"/><path d="M67 36h2v2h-2zm-8 0h2v2h-2z" fill="#ffd6e4"/><path d="M71 38h2v2h-2zm-6 0h2v2h-2zm-4 0h2v2h-2zm-6 0h2v2h-2z" fill="#ffbdd4"/></svg>